<?xml version="1.0" standalone="no"?>
<!DOCTYPE svg PUBLIC "-//W3C//DTD SVG 20010904//EN"
 "http://www.w3.org/TR/2001/REC-SVG-20010904/DTD/svg10.dtd">
<svg version="1.0" xmlns="http://www.w3.org/2000/svg"
 width="700.000000pt" height="700.000000pt" viewBox="0 0 700.000000 700.000000"
 preserveAspectRatio="xMidYMid meet">
<metadata>
Created by potrace 1.11, written by Peter Selinger 2001-2013
</metadata>
<g transform="translate(0.000000,700.000000) scale(0.100000,-0.100000)"
fill="#000000" stroke="none">
<path d="M3275 6994 c-208 -20 -278 -29 -395 -50 -659 -120 -1265 -421 -1745
-867 -638 -592 -1012 -1330 -1116 -2202 -18 -145 -18 -606 -1 -745 76 -611
254 -1099 579 -1582 524 -783 1347 -1322 2273 -1492 232 -42 331 -50 630 -50
299 0 398 8 630 50 566 104 1100 347 1555 710 655 522 1108 1278 1259 2104 42
232 50 331 50 630 0 299 -8 398 -50 630 -170 926 -709 1749 -1492 2273 -472
317 -949 495 -1537 573 -104 14 -553 27 -640 18z m-795 -1053 c391 -59 824
-203 1240 -411 799 -400 1323 -949 1520 -1591 102 -334 104 -741 4 -1107 -106
-391 -321 -738 -624 -1007 -403 -357 -852 -590 -1425 -737 -147 -38 -171 -41
-295 -42 -111 -1 -144 2 -185 18 -78 31 -130 71 -173 135 -136 203 -235 1062
-218 1877 10 485 51 981 88 1081 70 190 350 260 598 150 158 -70 278 -212 318
-377 33 -135 26 -228 -38 -518 -131 -598 -194 -1020 -207 -1387 -7 -213 0
-244 59 -286 43 -31 91 -33 205 -10 437 90 790 344 1002 721 211 374 265 880
131 1228 -132 343 -456 662 -930 917 -379 204 -799 356 -1457 529 -95 25 -190
54 -212 66 -128 65 -195 185 -195 350 0 77 3 92 34 153 58 118 189 215 338
252 82 20 276 18 422 -4z"/>
</g>
</svg>
