<svg id="Layer_1" data-name="Layer 1" xmlns="http://www.w3.org/2000/svg" viewBox="0 0 308.68 169.67"><defs><style>.cls-1{fill:#fff;}</style></defs><title>delight_logo_white</title><path class="cls-1" d="M175.4,25.11c12.48-10-3.25-19.75-8-16.19C160.49,14.15,166.2,32.47,175.4,25.11Z"/><path class="cls-1" d="M308.47,56.73c-0.23-1-.86-3-1.84-3.52s-2.77-.31-3.85-0.47c-1.79-.26-3.86-0.5-5.63-0.89,2-9.42,10.33-21,.36-23.82-5.22-1.48-9.81,1.38-12.3,6s-2.41,10.13-2.73,15.19c-2.64-.43-5.24.28-6.35,2.93a5,5,0,0,0-.22,3.63c0.48,1.14,1.77,1.5,2.84,1.9s0.87,0.5.51,1.64q-0.4,1.25-.78,2.51l0,0.17c-1.11,3.59-6,15.35-16,16.85-4.23.63-1-6.62-.41-8.25,1.59-4.47,3.77-8.71,5.19-13.25,1.2-3.84,2-9.06-1.5-12-3.14-2.59-7.62-1.71-11.1-.46a40.93,40.93,0,0,0-11.38,6.74c1-5.15,6.53-16.55,8.7-19.66,3.24-4.64,5.7-10.67,4.47-16.5C255.25,10,248.88,8.4,244.06,10c-5.13,1.66-7.79,7.15-9.61,11.82-1.67,4.29-4.71,19.1-6.88,33h0c-2.14,12.53-9.85,16.72-14,18.5a1.05,1.05,0,0,1-1.46-1.11c2.36-16.64,6-25.29,6.58-30.69,0.56-5-3.44-8.84-7.92-10.48-5-1.83-8.21-.21-8.42,2.85a4.87,4.87,0,0,1-3.82,4.4c-4.1.91-9,2.88-11.74,5.31A35.48,35.48,0,0,0,179.21,53a0.19,0.19,0,0,0-.17.15c-3.72,7-12.57,22.38-14.45,14.41-0.51-2.17,1-5,1.72-7,1-2.71,2.12-5.4,3.27-8.06a40.58,40.58,0,0,0,3.11-8.74c0.4-2.28.53-5.78-1.19-7.57s-5.1-1.54-7.25-.67a21.24,21.24,0,0,0-7,5.16,27.87,27.87,0,0,0-4.95,7h0C149.11,54.18,146,67,138.43,70c-1.18.47-3.05,1.1-3.44-.58-0.27-1.17.3-2.74,0.55-3.86,1.9-8.59,12.26-40,15-47.57,1.21-3.39,2.32-7.67.65-11.1s-5.95-3.82-9.2-3.11c-6.3,1.37-9.73,10-11.8,17.11-1.11,3.84-7,30.85-8.34,37.59-2.76,8.4-11.77,12.71-18.93,14.5-2.76.69-5.87,0.87-6.92-2.29a11.22,11.22,0,0,1-.47-2.51A5.72,5.72,0,0,1,95.46,67c0.19-1.12-.08-0.37.64-0.88a15.11,15.11,0,0,1,2.77-1c0.85-.34,1.7-0.7,2.53-1.08,6.39-2.92,12.3-7.51,13.87-14.71,1.28-5.88.13-13-6.71-14.32-7.47-1.4-13.64,3.47-18.15,8.88a45.07,45.07,0,0,0-9.79,20.8c-1,6.06-1,14,3.25,18.93,5.13,5.9,14.81,3.55,20.84.61a53.2,53.2,0,0,0,12.2-8.31,1.11,1.11,0,0,1,1.85.84c-0.05,2.78.4,5.76,2.81,7.24,3.3,2,8.25,1,11.56-.45a43.38,43.38,0,0,0,13-8.93,1.11,1.11,0,0,1,1.88.8h0c0,2.52.37,5.64,2.56,7.26s5.63,1.69,8.15,1.17c5.81-1.21,11.2-5.68,15.39-9.66L175.29,73a0.48,0.48,0,0,1,.79.19c1.25,4,4.13,7.17,8.29,8,4.73,0.93,9.19-1.8,12-5.52a0.53,0.53,0,0,1,.95.37c-0.25,2.68-.7,7.31-1,10.06q-0.24,1.36-.53,2.72a5.79,5.79,0,0,1-5.93,4.57q-4.57-.21-9.14-0.32a466.77,466.77,0,0,0-48.32,1.3,404.22,404.22,0,0,0-65.08,10.4c-9.89,2.44-19.59,5.42-29.24,8.56C29.34,116.2,26.85,125.27,34.2,134c1.45,1.71,2.75,3.32,3.9,4.5a101.64,101.64,0,0,0,27.63,20,108.29,108.29,0,0,0,48.6,11.21,100.88,100.88,0,0,0,52.15-15,98,98,0,0,0,34.91-37.49,5.82,5.82,0,0,1,5.68-3.1c7,0.66,14.09,1.41,21.08,2.47,20.44,3.08,45.85,16.77,67,14.67,4.07-.4,8-4,9.39-8.05a8.36,8.36,0,0,0,.09-5.12c-1.42-4.64-5.84-5.65-10-6.94q-7.75-2.42-15.62-4.48-16-4.2-32.24-7-17-3-34.21-4.61a2.45,2.45,0,0,1-2.17-2.92q0.24-1.19.46-2.4,0.1-.55.19-1.11a9,9,0,0,1,3.74-5.95l0.41-.29c1.83-1.33,3.62-2.72,5.34-4.18,1-.85,2-1.72,3-2.63a1,1,0,0,1,1.6.73c-0.48,7.85,8.07,12.56,12.85,11.32,1.44-.37,1.54-0.82,1.59-2.21C240,74,241.05,61.82,241.5,61.09s2.48-1.58,3.26-1.93a9.41,9.41,0,0,1,2.4-.74c1.72-.25,3.31.15,3.22,2.17-0.07,1.71-1,3.51-1.58,5.1-0.78,2.2-1.57,4.39-2.25,6.62-1.29,4.23-2.52,8.85-1.33,13.26,1,3.68,3.93,5.27,7.51,5.89,4.54,0.79,9.12-1.34,13-3.56a48.16,48.16,0,0,0,9-6.74c0.11,5.75,2,11.06,7.83,14.29,6,3.35,12.35,2.66,18.1,0,2.82-1.89,4.59-3.65,4.89-5.75,0.76-5.26-4.17-6.52-5.71-5.75-3.21,1.62-6.76,2.06-8.35-.54s-0.08-7.22.43-9.88c0.77-4,1.74-8,2.74-11.93,4.06,1.63,11.91,5.15,13.74-1.07A7.61,7.61,0,0,0,308.47,56.73ZM97.69,50.82c0.56-1.32,1.9-4.22,3.6-4.38,3.15-.3,2.16,5.12,1.5,6.71-1.21,2.93-3.81,4.23-6.73,5.08A24.71,24.71,0,0,1,97.69,50.82ZM185,115.61q-1.64,2.63-3.49,5.14c-16.78,22.79-44.66,35.5-72.9,33.87-21.4-1.24-42.78-9.9-58.19-24.9a2.53,2.53,0,0,1,1.13-4.27c8.79-2.28,17.65-4.32,26.59-6a435.73,435.73,0,0,1,65.75-7.25c13.13-.42,26.32-0.37,39.45.22a2.07,2.07,0,0,1,1.71,3.19H185Zm9.32-46.49c-4-.08-3.07-5.68-2.57-8.33a22.24,22.24,0,0,1,5.3-11h0a23.84,23.84,0,0,1,2.44-2.33,0.79,0.79,0,0,1,1.29.71c-0.57,4.89-1.9,15.81-2.19,18.07-0.18,1.86-2.45,2.91-4.22,2.88h-0.05Z"/><path class="cls-1" d="M79.48,56.24a45,45,0,0,1-13.79,33c-8.72,8.5-20.83,14.94-35.08,18-8,1.73-11.74-1.24-13-5.52h0c-4.46-15-4.36-42.73-2.12-60.51C16.87,30.24,40.16,33.69,36,52.25,33.4,63.56,30.2,79.56,30.6,90.12a3.15,3.15,0,0,0,3.84,2.82c16.86-2.44,28.38-16,28.38-34.07,0-28.57-46.88-38.58-56.53-41.15C2.29,16.64,0,13.66,0,9,0,5.15,4,0,11.9,0,28.92,0,79.48,17.65,79.48,56.24Z"/></svg>